
<global>
</global>

<group>
group_label=Group
</group>

<group>
group_label=RR1

<region>
hikey=B2
hivel=127
lokey=A#2
lovel=85
pitch_keycenter=A#2
sample=SoloCello_col_legno_FF_A#2_RR1.opus
</region>

<region>
hikey=B3
hivel=127
lokey=A#3
lovel=85
pitch_keycenter=A#3
sample=SoloCello_col_legno_FF_A#3_RR1.opus
</region>

<region>
hikey=B4
hivel=127
lokey=A#4
lovel=85
pitch_keycenter=A#4
sample=SoloCello_col_legno_FF_A#4_RR1.opus
</region>

<region>
hikey=C#2
hivel=127
lokey=C2
lovel=85
pitch_keycenter=C2
sample=SoloCello_col_legno_FF_C2_RR1.opus
</region>

<region>
hikey=C#3
hivel=127
lokey=C3
lovel=85
pitch_keycenter=C3
sample=SoloCello_col_legno_FF_C3_RR1.opus
</region>

<region>
hikey=C#4
hivel=127
lokey=C4
lovel=85
sample=SoloCello_col_legno_FF_C4_RR1.opus
</region>

<region>
hikey=C#5
hivel=127
lokey=C5
lovel=85
pitch_keycenter=C5
sample=SoloCello_col_legno_FF_C5_RR1.opus
</region>

<region>
hikey=D#2
hivel=127
lokey=D2
lovel=85
pitch_keycenter=D2
sample=SoloCello_col_legno_FF_D2_RR1.opus
</region>

<region>
hikey=D#3
hivel=127
lokey=D3
lovel=85
pitch_keycenter=D3
sample=SoloCello_col_legno_FF_D3_RR1.opus
</region>

<region>
hikey=D#4
hivel=127
lokey=D4
lovel=85
pitch_keycenter=D4
sample=SoloCello_col_legno_FF_D4_RR1.opus
</region>

<region>
hikey=D#5
hivel=127
lokey=D5
lovel=85
pitch_keycenter=D5
sample=SoloCello_col_legno_FF_D5_RR1.opus
</region>

<region>
hikey=F2
hivel=127
lokey=E2
lovel=85
pitch_keycenter=E2
sample=SoloCello_col_legno_FF_E2_RR1.opus
</region>

<region>
hikey=F3
hivel=127
lokey=E3
lovel=85
pitch_keycenter=E3
sample=SoloCello_col_legno_FF_E3_RR1.opus
</region>

<region>
hikey=F4
hivel=127
lokey=E4
lovel=85
pitch_keycenter=E4
sample=SoloCello_col_legno_FF_E4_RR1.opus
</region>

<region>
hikey=B6
hivel=127
lokey=E5
lovel=85
pitch_keycenter=E5
sample=SoloCello_col_legno_FF_E5_RR1.opus
</region>

<region>
hikey=G2
hivel=127
lokey=F#2
lovel=85
pitch_keycenter=F#2
sample=SoloCello_col_legno_FF_F#2_RR1.opus
</region>

<region>
hikey=G3
hivel=127
lokey=F#3
lovel=85
pitch_keycenter=F#3
sample=SoloCello_col_legno_FF_F#3_RR1.opus
</region>

<region>
hikey=G4
hivel=127
lokey=F#4
lovel=85
pitch_keycenter=F#4
sample=SoloCello_col_legno_FF_F#4_RR1.opus
</region>

<region>
hikey=A2
hivel=127
lokey=G#2
lovel=85
pitch_keycenter=G#2
sample=SoloCello_col_legno_FF_G#2_RR1.opus
</region>

<region>
hikey=A3
hivel=127
lokey=G#3
lovel=85
pitch_keycenter=G#3
sample=SoloCello_col_legno_FF_G#3_RR1.opus
</region>

<region>
hikey=A4
hivel=127
lokey=G#4
lovel=85
pitch_keycenter=G#4
sample=SoloCello_col_legno_FF_G#4_RR1.opus
</region>

<region>
hikey=B2
hivel=84
lokey=A#2
lovel=43
pitch_keycenter=A#2
sample=SoloCello_col_legno_MF_A#2_RR1.opus
</region>

<region>
hikey=B3
hivel=84
lokey=A#3
lovel=43
pitch_keycenter=A#3
sample=SoloCello_col_legno_MF_A#3_RR1.opus
</region>

<region>
hikey=B4
hivel=84
lokey=A#4
lovel=43
pitch_keycenter=A#4
sample=SoloCello_col_legno_MF_A#4_RR1.opus
</region>

<region>
hikey=C#2
hivel=84
lokey=C2
lovel=43
pitch_keycenter=C2
sample=SoloCello_col_legno_MF_C2_RR1.opus
</region>

<region>
hikey=C#3
hivel=84
lokey=C3
lovel=43
pitch_keycenter=C3
sample=SoloCello_col_legno_MF_C3_RR1.opus
</region>

<region>
hikey=C#4
hivel=84
lokey=C4
lovel=43
sample=SoloCello_col_legno_MF_C4_RR1.opus
</region>

<region>
hikey=C#5
hivel=84
lokey=C5
lovel=43
pitch_keycenter=C5
sample=SoloCello_col_legno_MF_C5_RR1.opus
</region>

<region>
hikey=D#2
hivel=84
lokey=D2
lovel=43
pitch_keycenter=D2
sample=SoloCello_col_legno_MF_D2_RR1.opus
</region>

<region>
hikey=D#3
hivel=84
lokey=D3
lovel=43
pitch_keycenter=D3
sample=SoloCello_col_legno_MF_D3_RR1.opus
</region>

<region>
hikey=D#4
hivel=84
lokey=D4
lovel=43
pitch_keycenter=D4
sample=SoloCello_col_legno_MF_D4_RR1.opus
</region>

<region>
hikey=D#5
hivel=84
lokey=D5
lovel=43
pitch_keycenter=D5
sample=SoloCello_col_legno_MF_D5_RR1.opus
</region>

<region>
hikey=F2
hivel=84
lokey=E2
lovel=43
pitch_keycenter=E2
sample=SoloCello_col_legno_MF_E2_RR1.opus
</region>

<region>
hikey=F3
hivel=84
lokey=E3
lovel=43
pitch_keycenter=E3
sample=SoloCello_col_legno_MF_E3_RR1.opus
</region>

<region>
hikey=F4
hivel=84
lokey=E4
lovel=43
pitch_keycenter=E4
sample=SoloCello_col_legno_MF_E4_RR1.opus
</region>

<region>
hikey=B6
hivel=84
lokey=E5
lovel=43
pitch_keycenter=E5
sample=SoloCello_col_legno_MF_E5_RR1.opus
</region>

<region>
hikey=G2
hivel=84
lokey=F#2
lovel=43
pitch_keycenter=F#2
sample=SoloCello_col_legno_MF_F#2_RR1.opus
</region>

<region>
hikey=G3
hivel=84
lokey=F#3
lovel=43
pitch_keycenter=F#3
sample=SoloCello_col_legno_MF_F#3_RR1.opus
</region>

<region>
hikey=G4
hivel=84
lokey=F#4
lovel=43
pitch_keycenter=F#4
sample=SoloCello_col_legno_MF_F#4_RR1.opus
</region>

<region>
hikey=A2
hivel=84
lokey=G#2
lovel=43
pitch_keycenter=G#2
sample=SoloCello_col_legno_MF_G#2_RR1.opus
</region>

<region>
hikey=A3
hivel=84
lokey=G#3
lovel=43
pitch_keycenter=G#3
sample=SoloCello_col_legno_MF_G#3_RR1.opus
</region>

<region>
hikey=A4
hivel=84
lokey=G#4
lovel=43
pitch_keycenter=G#4
sample=SoloCello_col_legno_MF_G#4_RR1.opus
</region>

<region>
hikey=B2
hivel=42
lokey=A#2
lovel=0
pitch_keycenter=A#2
sample=SoloCello_col_legno_PP_A#2_RR1.opus
</region>

<region>
hikey=B3
hivel=42
lokey=A#3
lovel=0
pitch_keycenter=A#3
sample=SoloCello_col_legno_PP_A#3_RR1.opus
</region>

<region>
hikey=B4
hivel=42
lokey=A#4
lovel=0
pitch_keycenter=A#4
sample=SoloCello_col_legno_PP_A#4_RR1.opus
</region>

<region>
hikey=C#2
hivel=42
lokey=C2
lovel=0
pitch_keycenter=C2
sample=SoloCello_col_legno_PP_C2_RR1.opus
</region>

<region>
hikey=C#3
hivel=42
lokey=C3
lovel=0
pitch_keycenter=C3
sample=SoloCello_col_legno_PP_C3_RR1.opus
</region>

<region>
hikey=C#4
hivel=42
lokey=C4
lovel=0
sample=SoloCello_col_legno_PP_C4_RR1.opus
</region>

<region>
hikey=C#5
hivel=42
lokey=C5
lovel=0
pitch_keycenter=C5
sample=SoloCello_col_legno_PP_C5_RR1.opus
</region>

<region>
hikey=D#2
hivel=42
lokey=D2
lovel=0
pitch_keycenter=D2
sample=SoloCello_col_legno_PP_D2_RR1.opus
</region>

<region>
hikey=D#3
hivel=42
lokey=D3
lovel=0
pitch_keycenter=D3
sample=SoloCello_col_legno_PP_D3_RR1.opus
</region>

<region>
hikey=D#4
hivel=42
lokey=D4
lovel=0
pitch_keycenter=D4
sample=SoloCello_col_legno_PP_D4_RR1.opus
</region>

<region>
hikey=D#5
hivel=42
lokey=D5
lovel=0
pitch_keycenter=D5
sample=SoloCello_col_legno_PP_D5_RR1.opus
</region>

<region>
hikey=F2
hivel=42
lokey=E2
lovel=0
pitch_keycenter=E2
sample=SoloCello_col_legno_PP_E2_RR1.opus
</region>

<region>
hikey=F3
hivel=42
lokey=E3
lovel=0
pitch_keycenter=E3
sample=SoloCello_col_legno_PP_E3_RR1.opus
</region>

<region>
hikey=F4
hivel=42
lokey=E4
lovel=0
pitch_keycenter=E4
sample=SoloCello_col_legno_PP_E4_RR1.opus
</region>

<region>
hikey=B6
hivel=42
lokey=E5
lovel=0
pitch_keycenter=E5
sample=SoloCello_col_legno_PP_E5_RR1.opus
</region>

<region>
hikey=G2
hivel=42
lokey=F#2
lovel=0
pitch_keycenter=F#2
sample=SoloCello_col_legno_PP_F#2_RR1.opus
</region>

<region>
hikey=G3
hivel=42
lokey=F#3
lovel=0
pitch_keycenter=F#3
sample=SoloCello_col_legno_PP_F#3_RR1.opus
</region>

<region>
hikey=G4
hivel=42
lokey=F#4
lovel=0
pitch_keycenter=F#4
sample=SoloCello_col_legno_PP_F#4_RR1.opus
</region>

<region>
hikey=A2
hivel=42
lokey=G#2
lovel=0
pitch_keycenter=G#2
sample=SoloCello_col_legno_PP_G#2_RR1.opus
</region>

<region>
hikey=A3
hivel=42
lokey=G#3
lovel=0
pitch_keycenter=G#3
sample=SoloCello_col_legno_PP_G#3_RR1.opus
</region>

<region>
hikey=A4
hivel=42
lokey=G#4
lovel=0
pitch_keycenter=G#4
sample=SoloCello_col_legno_PP_G#4_RR1.opus
</region>
</group>

<group>
group_label=RR2

<region>
hikey=B2
hivel=127
lokey=A#2
lovel=85
pitch_keycenter=A#2
sample=SoloCello_col_legno_FF_A#2_RR2.opus
</region>

<region>
hikey=B3
hivel=127
lokey=A#3
lovel=85
pitch_keycenter=A#3
sample=SoloCello_col_legno_FF_A#3_RR2.opus
</region>

<region>
hikey=B4
hivel=127
lokey=A#4
lovel=85
pitch_keycenter=A#4
sample=SoloCello_col_legno_FF_A#4_RR2.opus
</region>

<region>
hikey=C#2
hivel=127
lokey=C2
lovel=85
pitch_keycenter=C2
sample=SoloCello_col_legno_FF_C2_RR2.opus
</region>

<region>
hikey=C#3
hivel=127
lokey=C3
lovel=85
pitch_keycenter=C3
sample=SoloCello_col_legno_FF_C3_RR2.opus
</region>

<region>
hikey=C#4
hivel=127
lokey=C4
lovel=85
sample=SoloCello_col_legno_FF_C4_RR2.opus
</region>

<region>
hikey=C#5
hivel=127
lokey=C5
lovel=85
pitch_keycenter=C5
sample=SoloCello_col_legno_FF_C5_RR2.opus
</region>

<region>
hikey=D#2
hivel=127
lokey=D2
lovel=85
pitch_keycenter=D2
sample=SoloCello_col_legno_FF_D2_RR2.opus
</region>

<region>
hikey=D#3
hivel=127
lokey=D3
lovel=85
pitch_keycenter=D3
sample=SoloCello_col_legno_FF_D3_RR2.opus
</region>

<region>
hikey=D#4
hivel=127
lokey=D4
lovel=85
pitch_keycenter=D4
sample=SoloCello_col_legno_FF_D4_RR2.opus
</region>

<region>
hikey=D#5
hivel=127
lokey=D5
lovel=85
pitch_keycenter=D5
sample=SoloCello_col_legno_FF_D5_RR2.opus
</region>

<region>
hikey=F2
hivel=127
lokey=E2
lovel=85
pitch_keycenter=E2
sample=SoloCello_col_legno_FF_E2_RR2.opus
</region>

<region>
hikey=F3
hivel=127
lokey=E3
lovel=85
pitch_keycenter=E3
sample=SoloCello_col_legno_FF_E3_RR2.opus
</region>

<region>
hikey=F4
hivel=127
lokey=E4
lovel=85
pitch_keycenter=E4
sample=SoloCello_col_legno_FF_E4_RR2.opus
</region>

<region>
hikey=B6
hivel=127
lokey=E5
lovel=85
pitch_keycenter=E5
sample=SoloCello_col_legno_FF_E5_RR2.opus
</region>

<region>
hikey=G2
hivel=127
lokey=F#2
lovel=85
pitch_keycenter=F#2
sample=SoloCello_col_legno_FF_F#2_RR2.opus
</region>

<region>
hikey=G3
hivel=127
lokey=F#3
lovel=85
pitch_keycenter=F#3
sample=SoloCello_col_legno_FF_F#3_RR2.opus
</region>

<region>
hikey=G4
hivel=127
lokey=F#4
lovel=85
pitch_keycenter=F#4
sample=SoloCello_col_legno_FF_F#4_RR2.opus
</region>

<region>
hikey=A2
hivel=127
lokey=G#2
lovel=85
pitch_keycenter=G#2
sample=SoloCello_col_legno_FF_G#2_RR2.opus
</region>

<region>
hikey=A3
hivel=127
lokey=G#3
lovel=85
pitch_keycenter=G#3
sample=SoloCello_col_legno_FF_G#3_RR2.opus
</region>

<region>
hikey=A4
hivel=127
lokey=G#4
lovel=85
pitch_keycenter=G#4
sample=SoloCello_col_legno_FF_G#4_RR2.opus
</region>

<region>
hikey=B2
hivel=84
lokey=A#2
lovel=43
pitch_keycenter=A#2
sample=SoloCello_col_legno_MF_A#2_RR2.opus
</region>

<region>
hikey=B3
hivel=84
lokey=A#3
lovel=43
pitch_keycenter=A#3
sample=SoloCello_col_legno_MF_A#3_RR2.opus
</region>

<region>
hikey=B4
hivel=84
lokey=A#4
lovel=43
pitch_keycenter=A#4
sample=SoloCello_col_legno_MF_A#4_RR2.opus
</region>

<region>
hikey=C#2
hivel=84
lokey=C2
lovel=43
pitch_keycenter=C2
sample=SoloCello_col_legno_MF_C2_RR2.opus
</region>

<region>
hikey=C#3
hivel=84
lokey=C3
lovel=43
pitch_keycenter=C3
sample=SoloCello_col_legno_MF_C3_RR2.opus
</region>

<region>
hikey=C#4
hivel=84
lokey=C4
lovel=43
sample=SoloCello_col_legno_MF_C4_RR2.opus
</region>

<region>
hikey=C#5
hivel=84
lokey=C5
lovel=43
pitch_keycenter=C5
sample=SoloCello_col_legno_MF_C5_RR2.opus
</region>

<region>
hikey=D#2
hivel=84
lokey=D2
lovel=43
pitch_keycenter=D2
sample=SoloCello_col_legno_MF_D2_RR2.opus
</region>

<region>
hikey=D#3
hivel=84
lokey=D3
lovel=43
pitch_keycenter=D3
sample=SoloCello_col_legno_MF_D3_RR2.opus
</region>

<region>
hikey=D#4
hivel=84
lokey=D4
lovel=43
pitch_keycenter=D4
sample=SoloCello_col_legno_MF_D4_RR2.opus
</region>

<region>
hikey=D#5
hivel=84
lokey=D5
lovel=43
pitch_keycenter=D5
sample=SoloCello_col_legno_MF_D5_RR2.opus
</region>

<region>
hikey=F2
hivel=84
lokey=E2
lovel=43
pitch_keycenter=E2
sample=SoloCello_col_legno_MF_E2_RR2.opus
</region>

<region>
hikey=F3
hivel=84
lokey=E3
lovel=43
pitch_keycenter=E3
sample=SoloCello_col_legno_MF_E3_RR2.opus
</region>

<region>
hikey=F4
hivel=84
lokey=E4
lovel=43
pitch_keycenter=E4
sample=SoloCello_col_legno_MF_E4_RR2.opus
</region>

<region>
hikey=B6
hivel=84
lokey=E5
lovel=43
pitch_keycenter=E5
sample=SoloCello_col_legno_MF_E5_RR2.opus
</region>

<region>
hikey=G2
hivel=84
lokey=F#2
lovel=43
pitch_keycenter=F#2
sample=SoloCello_col_legno_MF_F#2_RR2.opus
</region>

<region>
hikey=G3
hivel=84
lokey=F#3
lovel=43
pitch_keycenter=F#3
sample=SoloCello_col_legno_MF_F#3_RR2.opus
</region>

<region>
hikey=G4
hivel=84
lokey=F#4
lovel=43
pitch_keycenter=F#4
sample=SoloCello_col_legno_MF_F#4_RR2.opus
</region>

<region>
hikey=A2
hivel=84
lokey=G#2
lovel=43
pitch_keycenter=G#2
sample=SoloCello_col_legno_MF_G#2_RR2.opus
</region>

<region>
hikey=A3
hivel=84
lokey=G#3
lovel=43
pitch_keycenter=G#3
sample=SoloCello_col_legno_MF_G#3_RR2.opus
</region>

<region>
hikey=A4
hivel=84
lokey=G#4
lovel=43
pitch_keycenter=G#4
sample=SoloCello_col_legno_MF_G#4_RR2.opus
</region>

<region>
hikey=B2
hivel=42
lokey=A#2
lovel=0
pitch_keycenter=A#2
sample=SoloCello_col_legno_PP_A#2_RR2.opus
</region>

<region>
hikey=B3
hivel=42
lokey=A#3
lovel=0
pitch_keycenter=A#3
sample=SoloCello_col_legno_PP_A#3_RR2.opus
</region>

<region>
hikey=B4
hivel=42
lokey=A#4
lovel=0
pitch_keycenter=A#4
sample=SoloCello_col_legno_PP_A#4_RR2.opus
</region>

<region>
hikey=C#2
hivel=42
lokey=C2
lovel=0
pitch_keycenter=C2
sample=SoloCello_col_legno_PP_C2_RR2.opus
</region>

<region>
hikey=C#3
hivel=42
lokey=C3
lovel=0
pitch_keycenter=C3
sample=SoloCello_col_legno_PP_C3_RR2.opus
</region>

<region>
hikey=C#4
hivel=42
lokey=C4
lovel=0
sample=SoloCello_col_legno_PP_C4_RR2.opus
</region>

<region>
hikey=C#5
hivel=42
lokey=C5
lovel=0
pitch_keycenter=C5
sample=SoloCello_col_legno_PP_C5_RR2.opus
</region>

<region>
hikey=D#2
hivel=42
lokey=D2
lovel=0
pitch_keycenter=D2
sample=SoloCello_col_legno_PP_D2_RR2.opus
</region>

<region>
hikey=D#3
hivel=42
lokey=D3
lovel=0
pitch_keycenter=D3
sample=SoloCello_col_legno_PP_D3_RR2.opus
</region>

<region>
hikey=D#4
hivel=42
lokey=D4
lovel=0
pitch_keycenter=D4
sample=SoloCello_col_legno_PP_D4_RR2.opus
</region>

<region>
hikey=D#5
hivel=42
lokey=D5
lovel=0
pitch_keycenter=D5
sample=SoloCello_col_legno_PP_D5_RR2.opus
</region>

<region>
hikey=F2
hivel=42
lokey=E2
lovel=0
pitch_keycenter=E2
sample=SoloCello_col_legno_PP_E2_RR2.opus
</region>

<region>
hikey=F3
hivel=42
lokey=E3
lovel=0
pitch_keycenter=E3
sample=SoloCello_col_legno_PP_E3_RR2.opus
</region>

<region>
hikey=F4
hivel=42
lokey=E4
lovel=0
pitch_keycenter=E4
sample=SoloCello_col_legno_PP_E4_RR2.opus
</region>

<region>
hikey=B6
hivel=42
lokey=E5
lovel=0
pitch_keycenter=E5
sample=SoloCello_col_legno_PP_E5_RR2.opus
</region>

<region>
hikey=G2
hivel=42
lokey=F#2
lovel=0
pitch_keycenter=F#2
sample=SoloCello_col_legno_PP_F#2_RR2.opus
</region>

<region>
hikey=G3
hivel=42
lokey=F#3
lovel=0
pitch_keycenter=F#3
sample=SoloCello_col_legno_PP_F#3_RR2.opus
</region>

<region>
hikey=G4
hivel=42
lokey=F#4
lovel=0
pitch_keycenter=F#4
sample=SoloCello_col_legno_PP_F#4_RR2.opus
</region>

<region>
hikey=A2
hivel=42
lokey=G#2
lovel=0
pitch_keycenter=G#2
sample=SoloCello_col_legno_PP_G#2_RR2.opus
</region>

<region>
hikey=A3
hivel=42
lokey=G#3
lovel=0
pitch_keycenter=G#3
sample=SoloCello_col_legno_PP_G#3_RR2.opus
</region>

<region>
hikey=A4
hivel=42
lokey=G#4
lovel=0
pitch_keycenter=G#4
sample=SoloCello_col_legno_PP_G#4_RR2.opus
</region>
</group>

<group>
group_label=RR3

<region>
hikey=B2
hivel=127
lokey=A#2
lovel=85
pitch_keycenter=A#2
sample=SoloCello_col_legno_FF_A#2_RR3.opus
</region>

<region>
hikey=B3
hivel=127
lokey=A#3
lovel=85
pitch_keycenter=A#3
sample=SoloCello_col_legno_FF_A#3_RR3.opus
</region>

<region>
hikey=B4
hivel=127
lokey=A#4
lovel=85
pitch_keycenter=A#4
sample=SoloCello_col_legno_FF_A#4_RR3.opus
</region>

<region>
hikey=C#2
hivel=127
lokey=C2
lovel=85
pitch_keycenter=C2
sample=SoloCello_col_legno_FF_C2_RR3.opus
</region>

<region>
hikey=C#3
hivel=127
lokey=C3
lovel=85
pitch_keycenter=C3
sample=SoloCello_col_legno_FF_C3_RR3.opus
</region>

<region>
hikey=C#4
hivel=127
lokey=C4
lovel=85
sample=SoloCello_col_legno_FF_C4_RR3.opus
</region>

<region>
hikey=C#5
hivel=127
lokey=C5
lovel=85
pitch_keycenter=C5
sample=SoloCello_col_legno_FF_C5_RR3.opus
</region>

<region>
hikey=D#2
hivel=127
lokey=D2
lovel=85
pitch_keycenter=D2
sample=SoloCello_col_legno_FF_D2_RR3.opus
</region>

<region>
hikey=D#3
hivel=127
lokey=D3
lovel=85
pitch_keycenter=D3
sample=SoloCello_col_legno_FF_D3_RR3.opus
</region>

<region>
hikey=D#4
hivel=127
lokey=D4
lovel=85
pitch_keycenter=D4
sample=SoloCello_col_legno_FF_D4_RR3.opus
</region>

<region>
hikey=D#5
hivel=127
lokey=D5
lovel=85
pitch_keycenter=D5
sample=SoloCello_col_legno_FF_D5_RR3.opus
</region>

<region>
hikey=F2
hivel=127
lokey=E2
lovel=85
pitch_keycenter=E2
sample=SoloCello_col_legno_FF_E2_RR3.opus
</region>

<region>
hikey=F3
hivel=127
lokey=E3
lovel=85
pitch_keycenter=E3
sample=SoloCello_col_legno_FF_E3_RR3.opus
</region>

<region>
hikey=F4
hivel=127
lokey=E4
lovel=85
pitch_keycenter=E4
sample=SoloCello_col_legno_FF_E4_RR3.opus
</region>

<region>
hikey=B6
hivel=127
lokey=E5
lovel=85
pitch_keycenter=E5
sample=SoloCello_col_legno_FF_E5_RR3.opus
</region>

<region>
hikey=G2
hivel=127
lokey=F#2
lovel=85
pitch_keycenter=F#2
sample=SoloCello_col_legno_FF_F#2_RR3.opus
</region>

<region>
hikey=G3
hivel=127
lokey=F#3
lovel=85
pitch_keycenter=F#3
sample=SoloCello_col_legno_FF_F#3_RR3.opus
</region>

<region>
hikey=G4
hivel=127
lokey=F#4
lovel=85
pitch_keycenter=F#4
sample=SoloCello_col_legno_FF_F#4_RR3.opus
</region>

<region>
hikey=A2
hivel=127
lokey=G#2
lovel=85
pitch_keycenter=G#2
sample=SoloCello_col_legno_FF_G#2_RR3.opus
</region>

<region>
hikey=A3
hivel=127
lokey=G#3
lovel=85
pitch_keycenter=G#3
sample=SoloCello_col_legno_FF_G#3_RR3.opus
</region>

<region>
hikey=A4
hivel=127
lokey=G#4
lovel=85
pitch_keycenter=G#4
sample=SoloCello_col_legno_FF_G#4_RR3.opus
</region>

<region>
hikey=B2
hivel=84
lokey=A#2
lovel=43
pitch_keycenter=A#2
sample=SoloCello_col_legno_MF_A#2_RR3.opus
</region>

<region>
hikey=B3
hivel=84
lokey=A#3
lovel=43
pitch_keycenter=A#3
sample=SoloCello_col_legno_MF_A#3_RR3.opus
</region>

<region>
hikey=B4
hivel=84
lokey=A#4
lovel=43
pitch_keycenter=A#4
sample=SoloCello_col_legno_MF_A#4_RR3.opus
</region>

<region>
hikey=C#2
hivel=84
lokey=C2
lovel=43
pitch_keycenter=C2
sample=SoloCello_col_legno_MF_C2_RR3.opus
</region>

<region>
hikey=C#3
hivel=84
lokey=C3
lovel=43
pitch_keycenter=C3
sample=SoloCello_col_legno_MF_C3_RR3.opus
</region>

<region>
hikey=C#4
hivel=84
lokey=C4
lovel=43
sample=SoloCello_col_legno_MF_C4_RR3.opus
</region>

<region>
hikey=C#5
hivel=84
lokey=C5
lovel=43
pitch_keycenter=C5
sample=SoloCello_col_legno_MF_C5_RR3.opus
</region>

<region>
hikey=D#2
hivel=84
lokey=D2
lovel=43
pitch_keycenter=D2
sample=SoloCello_col_legno_MF_D2_RR3.opus
</region>

<region>
hikey=D#3
hivel=84
lokey=D3
lovel=43
pitch_keycenter=D3
sample=SoloCello_col_legno_MF_D3_RR3.opus
</region>

<region>
hikey=D#4
hivel=84
lokey=D4
lovel=43
pitch_keycenter=D4
sample=SoloCello_col_legno_MF_D4_RR3.opus
</region>

<region>
hikey=D#5
hivel=84
lokey=D5
lovel=43
pitch_keycenter=D5
sample=SoloCello_col_legno_MF_D5_RR3.opus
</region>

<region>
hikey=F2
hivel=84
lokey=E2
lovel=43
pitch_keycenter=E2
sample=SoloCello_col_legno_MF_E2_RR3.opus
</region>

<region>
hikey=F3
hivel=84
lokey=E3
lovel=43
pitch_keycenter=E3
sample=SoloCello_col_legno_MF_E3_RR3.opus
</region>

<region>
hikey=F4
hivel=84
lokey=E4
lovel=43
pitch_keycenter=E4
sample=SoloCello_col_legno_MF_E4_RR3.opus
</region>

<region>
hikey=B6
hivel=84
lokey=E5
lovel=43
pitch_keycenter=E5
sample=SoloCello_col_legno_MF_E5_RR3.opus
</region>

<region>
hikey=G2
hivel=84
lokey=F#2
lovel=43
pitch_keycenter=F#2
sample=SoloCello_col_legno_MF_F#2_RR3.opus
</region>

<region>
hikey=G3
hivel=84
lokey=F#3
lovel=43
pitch_keycenter=F#3
sample=SoloCello_col_legno_MF_F#3_RR3.opus
</region>

<region>
hikey=G4
hivel=84
lokey=F#4
lovel=43
pitch_keycenter=F#4
sample=SoloCello_col_legno_MF_F#4_RR3.opus
</region>

<region>
hikey=A2
hivel=84
lokey=G#2
lovel=43
pitch_keycenter=G#2
sample=SoloCello_col_legno_MF_G#2_RR3.opus
</region>

<region>
hikey=A3
hivel=84
lokey=G#3
lovel=43
pitch_keycenter=G#3
sample=SoloCello_col_legno_MF_G#3_RR3.opus
</region>

<region>
hikey=A4
hivel=84
lokey=G#4
lovel=43
pitch_keycenter=G#4
sample=SoloCello_col_legno_MF_G#4_RR3.opus
</region>

<region>
hikey=B2
hivel=42
lokey=A#2
lovel=0
pitch_keycenter=A#2
sample=SoloCello_col_legno_PP_A#2_RR3.opus
</region>

<region>
hikey=B3
hivel=42
lokey=A#3
lovel=0
pitch_keycenter=A#3
sample=SoloCello_col_legno_PP_A#3_RR3.opus
</region>

<region>
hikey=B4
hivel=42
lokey=A#4
lovel=0
pitch_keycenter=A#4
sample=SoloCello_col_legno_PP_A#4_RR3.opus
</region>

<region>
hikey=C#2
hivel=42
lokey=C2
lovel=0
pitch_keycenter=C2
sample=SoloCello_col_legno_PP_C2_RR3.opus
</region>

<region>
hikey=C#3
hivel=42
lokey=C3
lovel=0
pitch_keycenter=C3
sample=SoloCello_col_legno_PP_C3_RR3.opus
</region>

<region>
hikey=C#4
hivel=42
lokey=C4
lovel=0
sample=SoloCello_col_legno_PP_C4_RR3.opus
</region>

<region>
hikey=C#5
hivel=42
lokey=C5
lovel=0
pitch_keycenter=C5
sample=SoloCello_col_legno_PP_C5_RR3.opus
</region>

<region>
hikey=D#2
hivel=42
lokey=D2
lovel=0
pitch_keycenter=D2
sample=SoloCello_col_legno_PP_D2_RR3.opus
</region>

<region>
hikey=D#3
hivel=42
lokey=D3
lovel=0
pitch_keycenter=D3
sample=SoloCello_col_legno_PP_D3_RR3.opus
</region>

<region>
hikey=D#4
hivel=42
lokey=D4
lovel=0
pitch_keycenter=D4
sample=SoloCello_col_legno_PP_D4_RR3.opus
</region>

<region>
hikey=D#5
hivel=42
lokey=D5
lovel=0
pitch_keycenter=D5
sample=SoloCello_col_legno_PP_D5_RR3.opus
</region>

<region>
hikey=F2
hivel=42
lokey=E2
lovel=0
pitch_keycenter=E2
sample=SoloCello_col_legno_PP_E2_RR3.opus
</region>

<region>
hikey=F3
hivel=42
lokey=E3
lovel=0
pitch_keycenter=E3
sample=SoloCello_col_legno_PP_E3_RR3.opus
</region>

<region>
hikey=F4
hivel=42
lokey=E4
lovel=0
pitch_keycenter=E4
sample=SoloCello_col_legno_PP_E4_RR3.opus
</region>

<region>
hikey=B6
hivel=42
lokey=E5
lovel=0
pitch_keycenter=E5
sample=SoloCello_col_legno_PP_E5_RR3.opus
</region>

<region>
hikey=G2
hivel=42
lokey=F#2
lovel=0
pitch_keycenter=F#2
sample=SoloCello_col_legno_PP_F#2_RR3.opus
</region>

<region>
hikey=G3
hivel=42
lokey=F#3
lovel=0
pitch_keycenter=F#3
sample=SoloCello_col_legno_PP_F#3_RR3.opus
</region>

<region>
hikey=G4
hivel=42
lokey=F#4
lovel=0
pitch_keycenter=F#4
sample=SoloCello_col_legno_PP_F#4_RR3.opus
</region>

<region>
hikey=A2
hivel=42
lokey=G#2
lovel=0
pitch_keycenter=G#2
sample=SoloCello_col_legno_PP_G#2_RR3.opus
</region>

<region>
hikey=A3
hivel=42
lokey=G#3
lovel=0
pitch_keycenter=G#3
sample=SoloCello_col_legno_PP_G#3_RR3.opus
</region>

<region>
hikey=A4
hivel=42
lokey=G#4
lovel=0
pitch_keycenter=G#4
sample=SoloCello_col_legno_PP_G#4_RR3.opus
</region>
</group>

<group>
group_label=RR4

<region>
hikey=B2
hivel=127
lokey=A#2
lovel=85
pitch_keycenter=A#2
sample=SoloCello_col_legno_FF_A#2_RR4.opus
</region>

<region>
hikey=B3
hivel=127
lokey=A#3
lovel=85
pitch_keycenter=A#3
sample=SoloCello_col_legno_FF_A#3_RR4.opus
</region>

<region>
hikey=B4
hivel=127
lokey=A#4
lovel=85
pitch_keycenter=A#4
sample=SoloCello_col_legno_FF_A#4_RR4.opus
</region>

<region>
hikey=C#2
hivel=127
lokey=C2
lovel=85
pitch_keycenter=C2
sample=SoloCello_col_legno_FF_C2_RR4.opus
</region>

<region>
hikey=C#3
hivel=127
lokey=C3
lovel=85
pitch_keycenter=C3
sample=SoloCello_col_legno_FF_C3_RR4.opus
</region>

<region>
hikey=C#4
hivel=127
lokey=C4
lovel=85
sample=SoloCello_col_legno_FF_C4_RR4.opus
</region>

<region>
hikey=C#5
hivel=127
lokey=C5
lovel=85
pitch_keycenter=C5
sample=SoloCello_col_legno_FF_C5_RR4.opus
</region>

<region>
hikey=D#2
hivel=127
lokey=D2
lovel=85
pitch_keycenter=D2
sample=SoloCello_col_legno_FF_D2_RR4.opus
</region>

<region>
hikey=D#3
hivel=127
lokey=D3
lovel=85
pitch_keycenter=D3
sample=SoloCello_col_legno_FF_D3_RR4.opus
</region>

<region>
hikey=D#4
hivel=127
lokey=D4
lovel=85
pitch_keycenter=D4
sample=SoloCello_col_legno_FF_D4_RR4.opus
</region>

<region>
hikey=D#5
hivel=127
lokey=D5
lovel=85
pitch_keycenter=D5
sample=SoloCello_col_legno_FF_D5_RR4.opus
</region>

<region>
hikey=F2
hivel=127
lokey=E2
lovel=85
pitch_keycenter=E2
sample=SoloCello_col_legno_FF_E2_RR4.opus
</region>

<region>
hikey=F3
hivel=127
lokey=E3
lovel=85
pitch_keycenter=E3
sample=SoloCello_col_legno_FF_E3_RR4.opus
</region>

<region>
hikey=F4
hivel=127
lokey=E4
lovel=85
pitch_keycenter=E4
sample=SoloCello_col_legno_FF_E4_RR4.opus
</region>

<region>
hikey=B6
hivel=127
lokey=E5
lovel=85
pitch_keycenter=E5
sample=SoloCello_col_legno_FF_E5_RR4.opus
</region>

<region>
hikey=G2
hivel=127
lokey=F#2
lovel=85
pitch_keycenter=F#2
sample=SoloCello_col_legno_FF_F#2_RR4.opus
</region>

<region>
hikey=G3
hivel=127
lokey=F#3
lovel=85
pitch_keycenter=F#3
sample=SoloCello_col_legno_FF_F#3_RR4.opus
</region>

<region>
hikey=G4
hivel=127
lokey=F#4
lovel=85
pitch_keycenter=F#4
sample=SoloCello_col_legno_FF_F#4_RR4.opus
</region>

<region>
hikey=A2
hivel=127
lokey=G#2
lovel=85
pitch_keycenter=G#2
sample=SoloCello_col_legno_FF_G#2_RR4.opus
</region>

<region>
hikey=A3
hivel=127
lokey=G#3
lovel=85
pitch_keycenter=G#3
sample=SoloCello_col_legno_FF_G#3_RR4.opus
</region>

<region>
hikey=A4
hivel=127
lokey=G#4
lovel=85
pitch_keycenter=G#4
sample=SoloCello_col_legno_FF_G#4_RR4.opus
</region>

<region>
hikey=B2
hivel=84
lokey=A#2
lovel=43
pitch_keycenter=A#2
sample=SoloCello_col_legno_MF_A#2_RR4.opus
</region>

<region>
hikey=B3
hivel=84
lokey=A#3
lovel=43
pitch_keycenter=A#3
sample=SoloCello_col_legno_MF_A#3_RR4.opus
</region>

<region>
hikey=B4
hivel=84
lokey=A#4
lovel=43
pitch_keycenter=A#4
sample=SoloCello_col_legno_MF_A#4_RR4.opus
</region>

<region>
hikey=C#2
hivel=84
lokey=C2
lovel=43
pitch_keycenter=C2
sample=SoloCello_col_legno_MF_C2_RR4.opus
</region>

<region>
hikey=C#3
hivel=84
lokey=C3
lovel=43
pitch_keycenter=C3
sample=SoloCello_col_legno_MF_C3_RR4.opus
</region>

<region>
hikey=C#4
hivel=84
lokey=C4
lovel=43
sample=SoloCello_col_legno_MF_C4_RR4.opus
</region>

<region>
hikey=C#5
hivel=84
lokey=C5
lovel=43
pitch_keycenter=C5
sample=SoloCello_col_legno_MF_C5_RR4.opus
</region>

<region>
hikey=D#2
hivel=84
lokey=D2
lovel=43
pitch_keycenter=D2
sample=SoloCello_col_legno_MF_D2_RR4.opus
</region>

<region>
hikey=D#3
hivel=84
lokey=D3
lovel=43
pitch_keycenter=D3
sample=SoloCello_col_legno_MF_D3_RR4.opus
</region>

<region>
hikey=D#4
hivel=84
lokey=D4
lovel=43
pitch_keycenter=D4
sample=SoloCello_col_legno_MF_D4_RR4.opus
</region>

<region>
hikey=D#5
hivel=84
lokey=D5
lovel=43
pitch_keycenter=D5
sample=SoloCello_col_legno_MF_D5_RR4.opus
</region>

<region>
hikey=F2
hivel=84
lokey=E2
lovel=43
pitch_keycenter=E2
sample=SoloCello_col_legno_MF_E2_RR4.opus
</region>

<region>
hikey=F3
hivel=84
lokey=E3
lovel=43
pitch_keycenter=E3
sample=SoloCello_col_legno_MF_E3_RR4.opus
</region>

<region>
hikey=F4
hivel=84
lokey=E4
lovel=43
pitch_keycenter=E4
sample=SoloCello_col_legno_MF_E4_RR4.opus
</region>

<region>
hikey=B6
hivel=84
lokey=E5
lovel=43
pitch_keycenter=E5
sample=SoloCello_col_legno_MF_E5_RR4.opus
</region>

<region>
hikey=G2
hivel=84
lokey=F#2
lovel=43
pitch_keycenter=F#2
sample=SoloCello_col_legno_MF_F#2_RR4.opus
</region>

<region>
hikey=G3
hivel=84
lokey=F#3
lovel=43
pitch_keycenter=F#3
sample=SoloCello_col_legno_MF_F#3_RR4.opus
</region>

<region>
hikey=G4
hivel=84
lokey=F#4
lovel=43
pitch_keycenter=F#4
sample=SoloCello_col_legno_MF_F#4_RR4.opus
</region>

<region>
hikey=A2
hivel=84
lokey=G#2
lovel=43
pitch_keycenter=G#2
sample=SoloCello_col_legno_MF_G#2_RR4.opus
</region>

<region>
hikey=A3
hivel=84
lokey=G#3
lovel=43
pitch_keycenter=G#3
sample=SoloCello_col_legno_MF_G#3_RR4.opus
</region>

<region>
hikey=A4
hivel=84
lokey=G#4
lovel=43
pitch_keycenter=G#4
sample=SoloCello_col_legno_MF_G#4_RR4.opus
</region>

<region>
hikey=B2
hivel=42
lokey=A#2
lovel=0
pitch_keycenter=A#2
sample=SoloCello_col_legno_PP_A#2_RR4.opus
</region>

<region>
hikey=B3
hivel=42
lokey=A#3
lovel=0
pitch_keycenter=A#3
sample=SoloCello_col_legno_PP_A#3_RR4.opus
</region>

<region>
hikey=B4
hivel=42
lokey=A#4
lovel=0
pitch_keycenter=A#4
sample=SoloCello_col_legno_PP_A#4_RR4.opus
</region>

<region>
hikey=C#2
hivel=42
lokey=C2
lovel=0
pitch_keycenter=C2
sample=SoloCello_col_legno_PP_C2_RR4.opus
</region>

<region>
hikey=C#3
hivel=42
lokey=C3
lovel=0
pitch_keycenter=C3
sample=SoloCello_col_legno_PP_C3_RR4.opus
</region>

<region>
hikey=C#4
hivel=42
lokey=C4
lovel=0
sample=SoloCello_col_legno_PP_C4_RR4.opus
</region>

<region>
hikey=C#5
hivel=42
lokey=C5
lovel=0
pitch_keycenter=C5
sample=SoloCello_col_legno_PP_C5_RR4.opus
</region>

<region>
hikey=D#2
hivel=42
lokey=D2
lovel=0
pitch_keycenter=D2
sample=SoloCello_col_legno_PP_D2_RR4.opus
</region>

<region>
hikey=D#3
hivel=42
lokey=D3
lovel=0
pitch_keycenter=D3
sample=SoloCello_col_legno_PP_D3_RR4.opus
</region>

<region>
hikey=D#4
hivel=42
lokey=D4
lovel=0
pitch_keycenter=D4
sample=SoloCello_col_legno_PP_D4_RR4.opus
</region>

<region>
hikey=D#5
hivel=42
lokey=D5
lovel=0
pitch_keycenter=D5
sample=SoloCello_col_legno_PP_D5_RR4.opus
</region>

<region>
hikey=F2
hivel=42
lokey=E2
lovel=0
pitch_keycenter=E2
sample=SoloCello_col_legno_PP_E2_RR4.opus
</region>

<region>
hikey=F3
hivel=42
lokey=E3
lovel=0
pitch_keycenter=E3
sample=SoloCello_col_legno_PP_E3_RR4.opus
</region>

<region>
hikey=F4
hivel=42
lokey=E4
lovel=0
pitch_keycenter=E4
sample=SoloCello_col_legno_PP_E4_RR4.opus
</region>

<region>
hikey=B6
hivel=42
lokey=E5
lovel=0
pitch_keycenter=E5
sample=SoloCello_col_legno_PP_E5_RR4.opus
</region>

<region>
hikey=G2
hivel=42
lokey=F#2
lovel=0
pitch_keycenter=F#2
sample=SoloCello_col_legno_PP_F#2_RR4.opus
</region>

<region>
hikey=G3
hivel=42
lokey=F#3
lovel=0
pitch_keycenter=F#3
sample=SoloCello_col_legno_PP_F#3_RR4.opus
</region>

<region>
hikey=G4
hivel=42
lokey=F#4
lovel=0
pitch_keycenter=F#4
sample=SoloCello_col_legno_PP_F#4_RR4.opus
</region>

<region>
hikey=A2
hivel=42
lokey=G#2
lovel=0
pitch_keycenter=G#2
sample=SoloCello_col_legno_PP_G#2_RR4.opus
</region>

<region>
hikey=A3
hivel=42
lokey=G#3
lovel=0
pitch_keycenter=G#3
sample=SoloCello_col_legno_PP_G#3_RR4.opus
</region>

<region>
hikey=A4
hivel=42
lokey=G#4
lovel=0
pitch_keycenter=G#4
sample=SoloCello_col_legno_PP_G#4_RR4.opus
</region>
</group>